<mxfile host="app.diagrams.net" modified="2024-04-30T19:27:18.444Z" agent="Mozilla/5.0 (Windows NT 10.0; Win64; x64; rv:125.0) Gecko/20100101 Firefox/125.0" etag="G8m3DJGrfefniIC6n_uu" version="24.3.1" type="device">
  <diagram name="Strona-1" id="ytrGY28hn7jTlz5pc1Aj">
    <mxGraphModel dx="5436" dy="3622" grid="1" gridSize="10" guides="1" tooltips="1" connect="1" arrows="1" fold="1" page="1" pageScale="1" pageWidth="827" pageHeight="1169" math="0" shadow="0">
      <root>
        <mxCell id="0" />
        <mxCell id="1" parent="0" />
        <mxCell id="Cbto0x0k5kFjPXafDiU2-1" value="Equipment&lt;div&gt;&lt;br&gt;&lt;/div&gt;" style="swimlane;fontStyle=1;align=center;verticalAlign=top;childLayout=stackLayout;horizontal=1;startSize=26;horizontalStack=0;resizeParent=1;resizeParentMax=0;resizeLast=0;collapsible=1;marginBottom=0;whiteSpace=wrap;html=1;" vertex="1" parent="1">
          <mxGeometry x="-590" y="10" width="210" height="390" as="geometry" />
        </mxCell>
        <mxCell id="Cbto0x0k5kFjPXafDiU2-2" value="- rows: int&lt;div&gt;- cols: int&lt;br&gt;&lt;div&gt;- pointerRow: int&lt;/div&gt;&lt;div&gt;- pointerCol: int&lt;/div&gt;&lt;div&gt;+ grid: vector&amp;lt;vector&amp;lt;Item *&amp;gt;&amp;gt;&lt;/div&gt;&lt;/div&gt;" style="text;strokeColor=none;fillColor=none;align=left;verticalAlign=top;spacingLeft=4;spacingRight=4;overflow=hidden;rotatable=0;points=[[0,0.5],[1,0.5]];portConstraint=eastwest;whiteSpace=wrap;html=1;" vertex="1" parent="Cbto0x0k5kFjPXafDiU2-1">
          <mxGeometry y="26" width="210" height="94" as="geometry" />
        </mxCell>
        <mxCell id="Cbto0x0k5kFjPXafDiU2-3" value="" style="line;strokeWidth=1;fillColor=none;align=left;verticalAlign=middle;spacingTop=-1;spacingLeft=3;spacingRight=3;rotatable=0;labelPosition=right;points=[];portConstraint=eastwest;strokeColor=inherit;" vertex="1" parent="Cbto0x0k5kFjPXafDiU2-1">
          <mxGeometry y="120" width="210" height="8" as="geometry" />
        </mxCell>
        <mxCell id="Cbto0x0k5kFjPXafDiU2-4" value="&lt;div&gt;&lt;div&gt;&lt;div&gt;+ getRows(): int&lt;/div&gt;&lt;div&gt;+ getCols(): int&lt;/div&gt;&lt;/div&gt;&lt;div&gt;+ getPointerRow(): int&lt;/div&gt;&lt;div&gt;+ getPointerCol(): int&lt;/div&gt;&lt;div&gt;+ getGrid(): vector&amp;lt;vector&amp;lt;Item*&amp;gt;&amp;gt;&amp;amp;&lt;/div&gt;&lt;div&gt;+ setRows(int): void&lt;/div&gt;&lt;div&gt;+ setCols(int): void&lt;/div&gt;&lt;div&gt;+ expand(): void&lt;br&gt;&lt;/div&gt;&lt;/div&gt;&lt;div&gt;+ display(): void&lt;/div&gt;&lt;div&gt;+ popInventory(): void&lt;/div&gt;&lt;div&gt;+ move(int, int): void&lt;br&gt;&lt;/div&gt;&lt;div&gt;+ movePointer(char): void&lt;/div&gt;&lt;div&gt;+ showDetails(int, int): void&lt;/div&gt;&lt;div&gt;+ deleteItem(int, int): void&lt;br&gt;&lt;/div&gt;" style="text;strokeColor=none;fillColor=none;align=left;verticalAlign=top;spacingLeft=4;spacingRight=4;overflow=hidden;rotatable=0;points=[[0,0.5],[1,0.5]];portConstraint=eastwest;whiteSpace=wrap;html=1;" vertex="1" parent="Cbto0x0k5kFjPXafDiU2-1">
          <mxGeometry y="128" width="210" height="262" as="geometry" />
        </mxCell>
        <mxCell id="Cbto0x0k5kFjPXafDiU2-5" value="Player" style="swimlane;fontStyle=1;align=center;verticalAlign=top;childLayout=stackLayout;horizontal=1;startSize=26;horizontalStack=0;resizeParent=1;resizeParentMax=0;resizeLast=0;collapsible=1;marginBottom=0;whiteSpace=wrap;html=1;" vertex="1" parent="1">
          <mxGeometry x="-165" y="-700" width="280" height="660" as="geometry" />
        </mxCell>
        <mxCell id="Cbto0x0k5kFjPXafDiU2-6" value="&lt;div&gt;- gold: int&lt;/div&gt;&lt;div&gt;- HP: int&lt;/div&gt;&lt;div&gt;- weapon: Item*&lt;/div&gt;&lt;div&gt;- support: Item*&lt;/div&gt;&lt;div&gt;- helmet: Item*&lt;br&gt;&lt;/div&gt;&lt;div&gt;- chestplate: Item*&lt;/div&gt;&lt;div&gt;- leggings: Item*&lt;/div&gt;&lt;div&gt;- boots: Item*&lt;/div&gt;&lt;div&gt;- eq: Equipment*&lt;/div&gt;" style="text;strokeColor=none;fillColor=none;align=left;verticalAlign=top;spacingLeft=4;spacingRight=4;overflow=hidden;rotatable=0;points=[[0,0.5],[1,0.5]];portConstraint=eastwest;whiteSpace=wrap;html=1;" vertex="1" parent="Cbto0x0k5kFjPXafDiU2-5">
          <mxGeometry y="26" width="280" height="144" as="geometry" />
        </mxCell>
        <mxCell id="Cbto0x0k5kFjPXafDiU2-7" value="" style="line;strokeWidth=1;fillColor=none;align=left;verticalAlign=middle;spacingTop=-1;spacingLeft=3;spacingRight=3;rotatable=0;labelPosition=right;points=[];portConstraint=eastwest;strokeColor=inherit;" vertex="1" parent="Cbto0x0k5kFjPXafDiU2-5">
          <mxGeometry y="170" width="280" height="8" as="geometry" />
        </mxCell>
        <mxCell id="Cbto0x0k5kFjPXafDiU2-8" value="&lt;div&gt;+ getEquipmentGrid(): vector&amp;lt;vector&amp;lt;Item*&amp;gt;&amp;gt;&amp;amp;&lt;/div&gt;&lt;div&gt;&lt;div&gt;+ getEq(): Equipment*&lt;/div&gt;&lt;div&gt;+ getAttack(): int&lt;/div&gt;&lt;div&gt;+ getWeapon(): Item*&lt;/div&gt;&lt;div&gt;+ decreaseWeaponDurability(): void&lt;/div&gt;&lt;div&gt;+ getHelmet(): Item*&lt;/div&gt;&lt;div&gt;+ setHelmet(Item*): void&lt;/div&gt;&lt;div&gt;+ decreaseHelmetDurability(Player&amp;amp;): void&lt;/div&gt;&lt;div&gt;+ getChestplate(): Item*&lt;/div&gt;&lt;div&gt;+ setChestplate(Item*): void&lt;/div&gt;&lt;div&gt;+ decreaseChestplateDurability(Player&amp;amp;): void&lt;/div&gt;&lt;div&gt;&lt;div&gt;+ getLeggins(): Item*&lt;/div&gt;&lt;div&gt;+ setLeggins(Item*): void&lt;/div&gt;&lt;div&gt;+ decreaseLegginsDurability(Player&amp;amp;): void&lt;/div&gt;&lt;div&gt;+ getBoots(): Item*&lt;/div&gt;&lt;div&gt;+ setBoots(Item*): void&lt;/div&gt;&lt;div&gt;+ decreaseBootsDurability(Player&amp;amp;): void&lt;/div&gt;&lt;div&gt;+ getDefense(): int&lt;/div&gt;&lt;div&gt;+ getGold(): int&lt;/div&gt;&lt;div&gt;+ setGold(int): void&lt;/div&gt;&lt;div&gt;+ getHP(): int&lt;/div&gt;&lt;div&gt;+ reduceHP(int): void&lt;br&gt;&lt;/div&gt;&lt;/div&gt;&lt;/div&gt;&lt;div&gt;+ setMainWeapon(int, int): void&lt;/div&gt;&lt;div&gt;+ setMainSupport(int, int): void&lt;/div&gt;&lt;div&gt;+ setMainHelmet(int, int): void&lt;/div&gt;&lt;div&gt;+ setMainChestplate(int, int): void&lt;/div&gt;&lt;div&gt;+ setMainLeggins(int, int): void&lt;/div&gt;&lt;div&gt;+ setMainBoots(int, int): void&lt;/div&gt;&lt;div&gt;+ popEq(): void&lt;br&gt;&lt;/div&gt;&lt;div&gt;+ displayPlayerStats(): void&lt;/div&gt;&lt;div&gt;+ buy(int, int, Shop&amp;amp;): void&lt;/div&gt;&lt;div&gt;+ sell(int, int, Shop&amp;amp;): void&lt;br&gt;&lt;/div&gt;" style="text;strokeColor=none;fillColor=none;align=left;verticalAlign=top;spacingLeft=4;spacingRight=4;overflow=hidden;rotatable=0;points=[[0,0.5],[1,0.5]];portConstraint=eastwest;whiteSpace=wrap;html=1;" vertex="1" parent="Cbto0x0k5kFjPXafDiU2-5">
          <mxGeometry y="178" width="280" height="482" as="geometry" />
        </mxCell>
        <mxCell id="Cbto0x0k5kFjPXafDiU2-9" value="Shop" style="swimlane;fontStyle=1;align=center;verticalAlign=top;childLayout=stackLayout;horizontal=1;startSize=26;horizontalStack=0;resizeParent=1;resizeParentMax=0;resizeLast=0;collapsible=1;marginBottom=0;whiteSpace=wrap;html=1;" vertex="1" parent="1">
          <mxGeometry x="260" y="440" width="190" height="240" as="geometry" />
        </mxCell>
        <mxCell id="Cbto0x0k5kFjPXafDiU2-10" value="- rows: int&lt;div&gt;- cols: int&lt;br&gt;&lt;div&gt;- pointerRow: int&lt;/div&gt;&lt;div&gt;- pointerCol: int&lt;/div&gt;&lt;div&gt;+ grid: vector&amp;lt;vector&amp;lt;Item *&amp;gt;&amp;gt;&lt;/div&gt;&lt;/div&gt;" style="text;strokeColor=none;fillColor=none;align=left;verticalAlign=top;spacingLeft=4;spacingRight=4;overflow=hidden;rotatable=0;points=[[0,0.5],[1,0.5]];portConstraint=eastwest;whiteSpace=wrap;html=1;" vertex="1" parent="Cbto0x0k5kFjPXafDiU2-9">
          <mxGeometry y="26" width="190" height="84" as="geometry" />
        </mxCell>
        <mxCell id="Cbto0x0k5kFjPXafDiU2-11" value="" style="line;strokeWidth=1;fillColor=none;align=left;verticalAlign=middle;spacingTop=-1;spacingLeft=3;spacingRight=3;rotatable=0;labelPosition=right;points=[];portConstraint=eastwest;strokeColor=inherit;" vertex="1" parent="Cbto0x0k5kFjPXafDiU2-9">
          <mxGeometry y="110" width="190" height="8" as="geometry" />
        </mxCell>
        <mxCell id="Cbto0x0k5kFjPXafDiU2-12" value="+ display(): void&lt;div&gt;+ movePointer(char): void&lt;/div&gt;&lt;div&gt;&lt;div&gt;+ getRows(): int&lt;/div&gt;&lt;div&gt;+ getCols(): int&lt;/div&gt;&lt;/div&gt;&lt;div&gt;+ getPointerRow(): int&lt;/div&gt;&lt;div&gt;+ getPointerCol(): int&lt;/div&gt;&lt;div&gt;+ showItemDetails(int, int): void&lt;br&gt;&lt;/div&gt;" style="text;strokeColor=none;fillColor=none;align=left;verticalAlign=top;spacingLeft=4;spacingRight=4;overflow=hidden;rotatable=0;points=[[0,0.5],[1,0.5]];portConstraint=eastwest;whiteSpace=wrap;html=1;" vertex="1" parent="Cbto0x0k5kFjPXafDiU2-9">
          <mxGeometry y="118" width="190" height="122" as="geometry" />
        </mxCell>
        <mxCell id="Cbto0x0k5kFjPXafDiU2-13" value="Enemy" style="swimlane;fontStyle=1;align=center;verticalAlign=top;childLayout=stackLayout;horizontal=1;startSize=26;horizontalStack=0;resizeParent=1;resizeParentMax=0;resizeLast=0;collapsible=1;marginBottom=0;whiteSpace=wrap;html=1;" vertex="1" parent="1">
          <mxGeometry x="230" y="810" width="230" height="240" as="geometry" />
        </mxCell>
        <mxCell id="Cbto0x0k5kFjPXafDiU2-14" value="- HP: int&lt;div&gt;- level: int&lt;/div&gt;&lt;div&gt;- attack: int&lt;/div&gt;&lt;div&gt;- resistance: int&lt;br&gt;&lt;/div&gt;" style="text;strokeColor=none;fillColor=none;align=left;verticalAlign=top;spacingLeft=4;spacingRight=4;overflow=hidden;rotatable=0;points=[[0,0.5],[1,0.5]];portConstraint=eastwest;whiteSpace=wrap;html=1;" vertex="1" parent="Cbto0x0k5kFjPXafDiU2-13">
          <mxGeometry y="26" width="230" height="64" as="geometry" />
        </mxCell>
        <mxCell id="Cbto0x0k5kFjPXafDiU2-15" value="" style="line;strokeWidth=1;fillColor=none;align=left;verticalAlign=middle;spacingTop=-1;spacingLeft=3;spacingRight=3;rotatable=0;labelPosition=right;points=[];portConstraint=eastwest;strokeColor=inherit;" vertex="1" parent="Cbto0x0k5kFjPXafDiU2-13">
          <mxGeometry y="90" width="230" height="8" as="geometry" />
        </mxCell>
        <mxCell id="Cbto0x0k5kFjPXafDiU2-16" value="&lt;div&gt;+ attackPlayer(Player&amp;amp;): void&lt;/div&gt;&lt;div&gt;+ levelUp(): void&lt;/div&gt;&lt;div&gt;+ reduceHP(int): void&lt;/div&gt;&lt;div&gt;+ getAttack(): int&lt;br&gt;&lt;/div&gt;&lt;div&gt;+ getHP(): int&lt;/div&gt;&lt;div&gt;+ getLevel(): int&lt;/div&gt;" style="text;strokeColor=none;fillColor=none;align=left;verticalAlign=top;spacingLeft=4;spacingRight=4;overflow=hidden;rotatable=0;points=[[0,0.5],[1,0.5]];portConstraint=eastwest;whiteSpace=wrap;html=1;" vertex="1" parent="Cbto0x0k5kFjPXafDiU2-13">
          <mxGeometry y="98" width="230" height="142" as="geometry" />
        </mxCell>
        <mxCell id="Cbto0x0k5kFjPXafDiU2-17" value="Game" style="swimlane;fontStyle=1;align=center;verticalAlign=top;childLayout=stackLayout;horizontal=1;startSize=26;horizontalStack=0;resizeParent=1;resizeParentMax=0;resizeLast=0;collapsible=1;marginBottom=0;whiteSpace=wrap;html=1;" vertex="1" parent="1">
          <mxGeometry x="-140" y="180" width="230" height="310" as="geometry" />
        </mxCell>
        <mxCell id="Cbto0x0k5kFjPXafDiU2-18" value="&lt;div&gt;- player: Player&lt;/div&gt;&lt;div&gt;&lt;div&gt;- enemy: enemy&lt;/div&gt;&lt;/div&gt;&lt;div&gt;- gameBoard: GameBoard&lt;/div&gt;&lt;div&gt;- shop: Shop&lt;/div&gt;&lt;div&gt;- gold: int&lt;br&gt;&lt;/div&gt;" style="text;strokeColor=none;fillColor=none;align=left;verticalAlign=top;spacingLeft=4;spacingRight=4;overflow=hidden;rotatable=0;points=[[0,0.5],[1,0.5]];portConstraint=eastwest;whiteSpace=wrap;html=1;" vertex="1" parent="Cbto0x0k5kFjPXafDiU2-17">
          <mxGeometry y="26" width="230" height="84" as="geometry" />
        </mxCell>
        <mxCell id="Cbto0x0k5kFjPXafDiU2-19" value="" style="line;strokeWidth=1;fillColor=none;align=left;verticalAlign=middle;spacingTop=-1;spacingLeft=3;spacingRight=3;rotatable=0;labelPosition=right;points=[];portConstraint=eastwest;strokeColor=inherit;" vertex="1" parent="Cbto0x0k5kFjPXafDiU2-17">
          <mxGeometry y="110" width="230" height="8" as="geometry" />
        </mxCell>
        <mxCell id="Cbto0x0k5kFjPXafDiU2-20" value="&lt;div&gt;+ displayMainMenu(int): void&lt;/div&gt;&lt;div&gt;+ mainMenu(): int&lt;/div&gt;&lt;div&gt;+ showInGameInventory(): bool&lt;/div&gt;&lt;div&gt;+ showItemOptions(int, int, int): void&lt;/div&gt;&lt;div&gt;+ showInGameShop(): void&lt;/div&gt;&lt;div&gt;+ play(): void&lt;/div&gt;&lt;div&gt;+ fightEnemy(Player&amp;amp;, Enemy&amp;amp;): void&lt;/div&gt;&lt;div&gt;+ gameOver(): void&lt;/div&gt;&lt;div&gt;+ win(Player&amp;amp;, Enemy&amp;amp;): void&lt;/div&gt;&lt;div&gt;+ pauseGame(int): int&lt;/div&gt;&lt;div&gt;+ newGame(): void&lt;/div&gt;" style="text;strokeColor=none;fillColor=none;align=left;verticalAlign=top;spacingLeft=4;spacingRight=4;overflow=hidden;rotatable=0;points=[[0,0.5],[1,0.5]];portConstraint=eastwest;whiteSpace=wrap;html=1;" vertex="1" parent="Cbto0x0k5kFjPXafDiU2-17">
          <mxGeometry y="118" width="230" height="192" as="geometry" />
        </mxCell>
        <mxCell id="Cbto0x0k5kFjPXafDiU2-29" value="Item" style="swimlane;fontStyle=1;align=center;verticalAlign=top;childLayout=stackLayout;horizontal=1;startSize=26;horizontalStack=0;resizeParent=1;resizeParentMax=0;resizeLast=0;collapsible=1;marginBottom=0;whiteSpace=wrap;html=1;" vertex="1" parent="1">
          <mxGeometry x="275" y="140" width="160" height="214" as="geometry" />
        </mxCell>
        <mxCell id="Cbto0x0k5kFjPXafDiU2-30" value="&lt;div&gt;+ name: string&lt;/div&gt;&lt;div&gt;+ durability: int&lt;/div&gt;&lt;div&gt;+ details: string&lt;/div&gt;&lt;div&gt;+ attack: int&lt;/div&gt;&lt;div&gt;+ resistance: int&lt;/div&gt;&lt;div&gt;+ type: string&lt;/div&gt;&lt;div&gt;+ price: int&lt;/div&gt;&lt;div&gt;+ rarity: string&lt;br&gt;&lt;/div&gt;" style="text;strokeColor=none;fillColor=none;align=left;verticalAlign=top;spacingLeft=4;spacingRight=4;overflow=hidden;rotatable=0;points=[[0,0.5],[1,0.5]];portConstraint=eastwest;whiteSpace=wrap;html=1;" vertex="1" parent="Cbto0x0k5kFjPXafDiU2-29">
          <mxGeometry y="26" width="160" height="134" as="geometry" />
        </mxCell>
        <mxCell id="Cbto0x0k5kFjPXafDiU2-31" value="" style="line;strokeWidth=1;fillColor=none;align=left;verticalAlign=middle;spacingTop=-1;spacingLeft=3;spacingRight=3;rotatable=0;labelPosition=right;points=[];portConstraint=eastwest;strokeColor=inherit;" vertex="1" parent="Cbto0x0k5kFjPXafDiU2-29">
          <mxGeometry y="160" width="160" height="28" as="geometry" />
        </mxCell>
        <mxCell id="Cbto0x0k5kFjPXafDiU2-32" value="+ getRarityColor: string" style="text;strokeColor=none;fillColor=none;align=left;verticalAlign=top;spacingLeft=4;spacingRight=4;overflow=hidden;rotatable=0;points=[[0,0.5],[1,0.5]];portConstraint=eastwest;whiteSpace=wrap;html=1;" vertex="1" parent="Cbto0x0k5kFjPXafDiU2-29">
          <mxGeometry y="188" width="160" height="26" as="geometry" />
        </mxCell>
        <mxCell id="Cbto0x0k5kFjPXafDiU2-37" value="GameBoard" style="swimlane;fontStyle=1;align=center;verticalAlign=top;childLayout=stackLayout;horizontal=1;startSize=26;horizontalStack=0;resizeParent=1;resizeParentMax=0;resizeLast=0;collapsible=1;marginBottom=0;whiteSpace=wrap;html=1;" vertex="1" parent="1">
          <mxGeometry x="-140" y="780" width="210" height="290" as="geometry" />
        </mxCell>
        <mxCell id="Cbto0x0k5kFjPXafDiU2-38" value="&lt;div&gt;- size: int&lt;/div&gt;&lt;div&gt;- playerRow: int&lt;/div&gt;&lt;div&gt;- playerCol: int&lt;br&gt;&lt;/div&gt;&lt;div&gt;- shopRow: int&lt;br&gt;&lt;/div&gt;&lt;div&gt;- shopCol: int&lt;br&gt;&lt;/div&gt;&lt;div&gt;- enemyRow: int&lt;br&gt;&lt;/div&gt;&lt;div&gt;- enemyCol: int&lt;/div&gt;" style="text;strokeColor=none;fillColor=none;align=left;verticalAlign=top;spacingLeft=4;spacingRight=4;overflow=hidden;rotatable=0;points=[[0,0.5],[1,0.5]];portConstraint=eastwest;whiteSpace=wrap;html=1;" vertex="1" parent="Cbto0x0k5kFjPXafDiU2-37">
          <mxGeometry y="26" width="210" height="114" as="geometry" />
        </mxCell>
        <mxCell id="Cbto0x0k5kFjPXafDiU2-39" value="" style="line;strokeWidth=1;fillColor=none;align=left;verticalAlign=middle;spacingTop=-1;spacingLeft=3;spacingRight=3;rotatable=0;labelPosition=right;points=[];portConstraint=eastwest;strokeColor=inherit;" vertex="1" parent="Cbto0x0k5kFjPXafDiU2-37">
          <mxGeometry y="140" width="210" height="8" as="geometry" />
        </mxCell>
        <mxCell id="Cbto0x0k5kFjPXafDiU2-40" value="&lt;div&gt;+ updatePlayerPosition(int, int): void&lt;/div&gt;&lt;div&gt;+ display(): void&lt;/div&gt;&lt;div&gt;+ getSize(): int&lt;/div&gt;&lt;div&gt;+ getPlayerRow(): int&lt;/div&gt;&lt;div&gt;+ getPlayerCol(): int&lt;/div&gt;&lt;div&gt;+ getShopRow(): int&lt;/div&gt;&lt;div&gt;+ getShopCol(): int&lt;/div&gt;&lt;div&gt;+ getEnemyRow(): int&lt;/div&gt;&lt;div&gt;+ getEnemyCol(): int&lt;/div&gt;" style="text;strokeColor=none;fillColor=none;align=left;verticalAlign=top;spacingLeft=4;spacingRight=4;overflow=hidden;rotatable=0;points=[[0,0.5],[1,0.5]];portConstraint=eastwest;whiteSpace=wrap;html=1;" vertex="1" parent="Cbto0x0k5kFjPXafDiU2-37">
          <mxGeometry y="148" width="210" height="142" as="geometry" />
        </mxCell>
        <mxCell id="Cbto0x0k5kFjPXafDiU2-45" value="" style="endArrow=diamondThin;endFill=1;endSize=24;html=1;rounded=0;entryX=0.438;entryY=-0.002;entryDx=0;entryDy=0;entryPerimeter=0;exitX=0.444;exitY=1.011;exitDx=0;exitDy=0;exitPerimeter=0;" edge="1" parent="1" source="Cbto0x0k5kFjPXafDiU2-8" target="Cbto0x0k5kFjPXafDiU2-17">
          <mxGeometry width="160" relative="1" as="geometry">
            <mxPoint x="-150" y="760" as="sourcePoint" />
            <mxPoint x="10" y="760" as="targetPoint" />
          </mxGeometry>
        </mxCell>
        <mxCell id="Cbto0x0k5kFjPXafDiU2-46" value="" style="endArrow=diamondThin;endFill=1;endSize=24;html=1;rounded=0;entryX=0.519;entryY=1.028;entryDx=0;entryDy=0;entryPerimeter=0;exitX=0.55;exitY=0.009;exitDx=0;exitDy=0;exitPerimeter=0;" edge="1" parent="1" source="Cbto0x0k5kFjPXafDiU2-37" target="Cbto0x0k5kFjPXafDiU2-20">
          <mxGeometry width="160" relative="1" as="geometry">
            <mxPoint x="-180" y="750" as="sourcePoint" />
            <mxPoint x="-20" y="750" as="targetPoint" />
          </mxGeometry>
        </mxCell>
        <mxCell id="Cbto0x0k5kFjPXafDiU2-47" value="" style="endArrow=diamondThin;endFill=1;endSize=24;html=1;rounded=0;entryX=1.013;entryY=0.266;entryDx=0;entryDy=0;entryPerimeter=0;exitX=-0.02;exitY=0.825;exitDx=0;exitDy=0;exitPerimeter=0;" edge="1" parent="1" source="Cbto0x0k5kFjPXafDiU2-10" target="Cbto0x0k5kFjPXafDiU2-20">
          <mxGeometry width="160" relative="1" as="geometry">
            <mxPoint y="750" as="sourcePoint" />
            <mxPoint x="160" y="750" as="targetPoint" />
          </mxGeometry>
        </mxCell>
        <mxCell id="Cbto0x0k5kFjPXafDiU2-48" value="" style="endArrow=diamondThin;endFill=1;endSize=24;html=1;rounded=0;entryX=1.013;entryY=0.978;entryDx=0;entryDy=0;entryPerimeter=0;exitX=0.047;exitY=-0.002;exitDx=0;exitDy=0;exitPerimeter=0;" edge="1" parent="1" source="Cbto0x0k5kFjPXafDiU2-13" target="Cbto0x0k5kFjPXafDiU2-20">
          <mxGeometry width="160" relative="1" as="geometry">
            <mxPoint y="750" as="sourcePoint" />
            <mxPoint x="160" y="750" as="targetPoint" />
          </mxGeometry>
        </mxCell>
        <mxCell id="Cbto0x0k5kFjPXafDiU2-49" value="" style="endArrow=diamondThin;endFill=1;endSize=24;html=1;rounded=0;exitX=0.997;exitY=0.161;exitDx=0;exitDy=0;exitPerimeter=0;entryX=0.018;entryY=0.212;entryDx=0;entryDy=0;entryPerimeter=0;" edge="1" parent="1" source="Cbto0x0k5kFjPXafDiU2-4" target="Cbto0x0k5kFjPXafDiU2-8">
          <mxGeometry width="160" relative="1" as="geometry">
            <mxPoint x="-380" y="680" as="sourcePoint" />
            <mxPoint x="-220" y="680" as="targetPoint" />
          </mxGeometry>
        </mxCell>
        <mxCell id="Cbto0x0k5kFjPXafDiU2-50" value="" style="endArrow=diamondThin;endFill=0;endSize=24;html=1;rounded=0;exitX=1.004;exitY=0.161;exitDx=0;exitDy=0;exitPerimeter=0;entryX=0.002;entryY=0.058;entryDx=0;entryDy=0;entryPerimeter=0;" edge="1" parent="1" source="Cbto0x0k5kFjPXafDiU2-4" target="Cbto0x0k5kFjPXafDiU2-30">
          <mxGeometry width="160" relative="1" as="geometry">
            <mxPoint x="-320" y="540" as="sourcePoint" />
            <mxPoint x="-160" y="540" as="targetPoint" />
          </mxGeometry>
        </mxCell>
        <mxCell id="Cbto0x0k5kFjPXafDiU2-51" value="" style="endArrow=open;endFill=1;endSize=12;html=1;rounded=0;exitX=0.998;exitY=0.377;exitDx=0;exitDy=0;exitPerimeter=0;entryX=0;entryY=0;entryDx=0;entryDy=0;" edge="1" parent="1" source="Cbto0x0k5kFjPXafDiU2-8" target="Cbto0x0k5kFjPXafDiU2-29">
          <mxGeometry width="160" relative="1" as="geometry">
            <mxPoint x="-40" y="240" as="sourcePoint" />
            <mxPoint x="120" y="240" as="targetPoint" />
          </mxGeometry>
        </mxCell>
      </root>
    </mxGraphModel>
  </diagram>
</mxfile>
